<svg width="19" height="20" viewBox="0 0 19 20" fill="none" xmlns="http://www.w3.org/2000/svg">
<path d="M12.525 9.45831V9.55831H12.625H18.775V19.775H0.225V5.39165H6.375H6.475V5.29165V3.24973L9.5 0.224735L12.525 3.24973V9.45831ZM4.29167 17.8916H4.39167V17.7916V15.7083V15.6083H4.29167H2.20833H2.10833V15.7083V17.7916V17.8916H2.20833H4.29167ZM4.29167 13.725H4.39167V13.625V11.5416V11.4416H4.29167H2.20833H2.10833V11.5416V13.625V13.725H2.20833H4.29167ZM4.29167 9.55831H4.39167V9.45831V7.37498V7.27498H4.29167H2.20833H2.10833V7.37498V9.45831V9.55831H2.20833H4.29167ZM10.5417 17.8916H10.6417V17.7916V15.7083V15.6083H10.5417H8.45833H8.35833V15.7083V17.7916V17.8916H8.45833H10.5417ZM10.5417 13.725H10.6417V13.625V11.5416V11.4416H10.5417H8.45833H8.35833V11.5416V13.625V13.725H8.45833H10.5417ZM10.5417 9.55831H10.6417V9.45831V7.37498V7.27498H10.5417H8.45833H8.35833V7.37498V9.45831V9.55831H8.45833H10.5417ZM10.5417 5.39165H10.6417V5.29165V3.20831V3.10831H10.5417H8.45833H8.35833V3.20831V5.29165V5.39165H8.45833H10.5417ZM16.7917 17.8916H16.8917V17.7916V15.7083V15.6083H16.7917H14.7083H14.6083V15.7083V17.7916V17.8916H14.7083H16.7917ZM16.7917 13.725H16.8917V13.625V11.5416V11.4416H16.7917H14.7083H14.6083V11.5416V13.625V13.725H14.7083H16.7917Z" fill="white" stroke="black" stroke-width="0.2"/>
</svg>
