<?xml version="1.0" standalone="no"?>
<!DOCTYPE svg PUBLIC "-//W3C//DTD SVG 20010904//EN"
 "http://www.w3.org/TR/2001/REC-SVG-20010904/DTD/svg10.dtd">
<svg version="1.0" xmlns="http://www.w3.org/2000/svg"
 width="2001.000000pt" height="2001.000000pt" viewBox="0 0 2001.000000 2001.000000"
 preserveAspectRatio="xMidYMid meet">

<g transform="translate(0.000000,2001.000000) scale(0.100000,-0.100000)"
fill="#000000" stroke="none">
<path d="M18532 4277 c-85 -31 -152 -128 -151 -217 1 -166 150 -274 313 -229
51 14 128 91 144 145 28 95 8 178 -59 246 -65 65 -160 86 -247 55z"/>
<path d="M1358 3570 c-225 -40 -397 -167 -494 -365 -81 -165 -117 -388 -96
-598 14 -141 34 -221 82 -322 91 -195 237 -320 455 -388 127 -39 241 -51 452
-44 153 5 377 27 389 40 4 3 -37 281 -41 286 -2 2 -59 -5 -127 -15 -163 -24
-398 -24 -488 -1 -102 27 -201 80 -262 141 -57 57 -115 160 -125 221 l-6 35
561 0 561 0 7 57 c13 107 -2 349 -29 454 -66 256 -219 419 -452 484 -69 19
-312 29 -387 15z m312 -305 c142 -50 235 -188 247 -367 l6 -78 -423 0 -422 0
7 53 c18 127 81 258 156 321 41 35 122 73 181 86 59 12 193 4 248 -15z"/>
<path d="M5248 3564 c-131 -31 -239 -117 -277 -219 -12 -31 -21 -62 -21 -70 0
-8 -4 -17 -10 -20 -12 -7 -17 18 -25 115 -3 41 -8 99 -11 128 l-6 52 -154 0
-154 0 0 -1200 0 -1200 170 0 170 0 0 515 c0 433 2 515 14 515 8 0 17 -16 21
-37 26 -141 141 -247 303 -282 73 -15 223 -14 307 4 326 68 495 353 495 832 0
346 -66 561 -219 714 -85 85 -145 118 -265 149 -94 24 -250 26 -338 4z m163
-274 c117 -22 200 -89 256 -205 60 -126 86 -335 64 -515 -33 -265 -135 -399
-329 -431 -179 -30 -331 42 -407 191 -48 95 -59 167 -59 385 0 218 11 290 59
385 78 153 234 224 416 190z"/>
<path d="M7393 3565 c-101 -28 -171 -74 -223 -150 -33 -48 -76 -173 -85 -247
-4 -31 -11 -48 -20 -48 -17 0 -19 14 -45 220 -12 91 -23 175 -26 188 l-4 22
-290 0 -290 0 0 -135 0 -135 155 0 155 0 0 -565 0 -565 -190 0 -190 0 0 -135
0 -135 565 0 565 0 0 135 0 135 -205 0 -205 0 0 308 c0 221 4 332 15 397 40
251 138 388 308 431 118 31 226 0 271 -78 28 -51 46 -128 46 -203 l0 -55 171
0 172 0 -7 98 c-26 374 -174 533 -496 531 -52 0 -119 -7 -147 -14z"/>
<path d="M8918 3570 c-225 -40 -397 -167 -494 -365 -81 -165 -117 -388 -96
-598 14 -141 34 -221 82 -322 91 -195 237 -320 455 -388 127 -39 241 -51 452
-44 153 5 377 27 389 40 4 3 -37 281 -41 286 -2 2 -59 -5 -127 -15 -163 -24
-398 -24 -488 -1 -102 27 -201 80 -262 141 -57 57 -115 160 -125 221 l-6 35
561 0 561 0 7 57 c13 107 -2 349 -29 454 -66 256 -219 419 -452 484 -69 19
-312 29 -387 15z m312 -305 c142 -50 235 -188 247 -367 l6 -78 -423 0 -422 0
7 53 c18 127 81 258 156 321 41 35 122 73 181 86 59 12 193 4 248 -15z"/>
<path d="M10940 3574 c-14 -2 -65 -9 -115 -15 -107 -13 -236 -49 -307 -85 -68
-34 -154 -117 -184 -176 -67 -132 -72 -317 -11 -434 24 -46 98 -109 174 -147
91 -46 181 -74 471 -148 277 -71 313 -88 332 -160 33 -122 -43 -205 -220 -240
-107 -21 -426 -16 -619 10 -90 12 -165 20 -167 19 -2 -3 -30 -214 -37 -278 -2
-22 3 -25 58 -36 126 -26 315 -36 553 -31 306 7 425 30 573 109 149 79 230
244 216 439 -9 112 -39 183 -107 250 -97 97 -199 139 -547 224 -236 58 -308
83 -342 119 -24 26 -37 82 -27 120 10 39 62 92 109 111 116 46 350 63 635 45
107 -6 196 -10 198 -7 8 8 38 276 32 282 -16 16 -142 26 -378 30 -146 2 -276
2 -290 -1z"/>
<path d="M12708 3570 c-225 -40 -397 -167 -494 -365 -81 -165 -117 -388 -96
-598 14 -141 34 -221 82 -322 91 -195 237 -320 455 -388 127 -39 241 -51 452
-44 153 5 377 27 389 40 4 3 -37 281 -41 286 -2 2 -59 -5 -127 -15 -163 -24
-398 -24 -488 -1 -102 27 -201 80 -262 141 -57 57 -115 160 -125 221 l-6 35
561 0 561 0 7 57 c13 107 -2 349 -29 454 -66 256 -219 419 -452 484 -69 19
-312 29 -387 15z m312 -305 c142 -50 235 -188 247 -367 l6 -78 -423 0 -422 0
7 53 c18 127 81 258 156 321 41 35 122 73 181 86 59 12 193 4 248 -15z"/>
<path d="M14715 3570 c-167 -35 -266 -129 -290 -277 -4 -26 -12 -43 -20 -43
-18 0 -22 18 -30 125 -3 50 -8 109 -12 133 l-5 42 -154 0 -154 0 0 -835 0
-835 170 0 170 0 0 503 c1 549 5 608 56 711 35 71 98 128 173 157 68 26 223
32 285 10 53 -18 124 -86 150 -141 20 -44 21 -60 24 -642 l3 -598 170 0 170 0
-3 623 -3 622 -26 82 c-61 196 -183 314 -371 358 -67 16 -236 18 -303 5z"/>
<path d="M16610 3574 c-14 -2 -65 -9 -115 -15 -107 -13 -236 -49 -307 -85 -68
-34 -154 -117 -184 -176 -67 -132 -72 -317 -11 -434 24 -46 98 -109 174 -147
91 -46 181 -74 471 -148 277 -71 313 -88 332 -160 33 -122 -43 -205 -220 -240
-107 -21 -426 -16 -619 10 -90 12 -165 20 -167 19 -2 -3 -30 -214 -37 -278 -2
-22 3 -25 58 -36 126 -26 315 -36 553 -31 306 7 425 30 573 109 149 79 230
244 216 439 -9 112 -39 183 -107 250 -97 97 -199 139 -547 224 -236 58 -308
83 -342 119 -24 26 -37 82 -27 120 10 39 62 92 109 111 116 46 350 63 635 45
107 -6 196 -10 198 -7 8 8 38 276 32 282 -16 16 -142 26 -378 30 -146 2 -276
2 -290 -1z"/>
<path d="M17910 3415 l0 -135 275 0 275 0 0 -565 0 -565 -320 0 -320 0 0 -135
0 -135 745 0 745 0 0 135 0 135 -255 0 -255 0 0 700 0 700 -445 0 -445 0 0
-135z"/>
<path d="M2600 2995 l0 -145 790 0 790 0 0 145 0 145 -790 0 -790 0 0 -145z"/>
</g>
</svg>
