<svg width="265" height="265" viewBox="0 0 265 265" fill="none" xmlns="http://www.w3.org/2000/svg">
<circle cx="132.5" cy="132.5" r="132.5" fill="#FF9912"/>
<circle cx="132.5" cy="132.5" r="104.5" fill="white"/>
<circle cx="132.5" cy="132.5" r="83.5" fill="#FF9912"/>
<path d="M74.2107 146V120.8H85.1187C87.3747 120.8 89.3187 121.172 90.9507 121.916C92.5827 122.636 93.8427 123.68 94.7307 125.048C95.6187 126.416 96.0627 128.048 96.0627 129.944C96.0627 131.816 95.6187 133.436 94.7307 134.804C93.8427 136.172 92.5827 137.228 90.9507 137.972C89.3187 138.692 87.3747 139.052 85.1187 139.052H77.4507L80.0427 136.424V146H74.2107ZM80.0427 137.072L77.4507 134.3H84.7947C86.5947 134.3 87.9387 133.916 88.8267 133.148C89.7147 132.38 90.1587 131.312 90.1587 129.944C90.1587 128.552 89.7147 127.472 88.8267 126.704C87.9387 125.936 86.5947 125.552 84.7947 125.552H77.4507L80.0427 122.78V137.072ZM100.226 146V120.8H111.134C113.39 120.8 115.334 121.172 116.966 121.916C118.598 122.636 119.858 123.68 120.746 125.048C121.634 126.416 122.078 128.048 122.078 129.944C122.078 131.816 121.634 133.436 120.746 134.804C119.858 136.148 118.598 137.18 116.966 137.9C115.334 138.62 113.39 138.98 111.134 138.98H103.466L106.058 136.424V146H100.226ZM116.246 146L109.946 136.856H116.174L122.546 146H116.246ZM106.058 137.072L103.466 134.336H110.81C112.61 134.336 113.954 133.952 114.842 133.184C115.73 132.392 116.174 131.312 116.174 129.944C116.174 128.552 115.73 127.472 114.842 126.704C113.954 125.936 112.61 125.552 110.81 125.552H103.466L106.058 122.78V137.072ZM132.063 130.952H144.195V135.488H132.063V130.952ZM132.495 141.32H146.211V146H126.699V120.8H145.743V125.48H132.495V141.32ZM159.131 146.432C157.115 146.432 155.183 146.168 153.335 145.64C151.487 145.088 149.999 144.38 148.871 143.516L150.851 139.124C151.931 139.892 153.203 140.528 154.667 141.032C156.155 141.512 157.655 141.752 159.167 141.752C160.319 141.752 161.243 141.644 161.939 141.428C162.659 141.188 163.187 140.864 163.523 140.456C163.859 140.048 164.027 139.58 164.027 139.052C164.027 138.38 163.763 137.852 163.235 137.468C162.707 137.06 162.011 136.736 161.147 136.496C160.283 136.232 159.323 135.992 158.267 135.776C157.235 135.536 156.191 135.248 155.135 134.912C154.103 134.576 153.155 134.144 152.291 133.616C151.427 133.088 150.719 132.392 150.167 131.528C149.639 130.664 149.375 129.56 149.375 128.216C149.375 126.776 149.759 125.468 150.527 124.292C151.319 123.092 152.495 122.144 154.055 121.448C155.639 120.728 157.619 120.368 159.995 120.368C161.579 120.368 163.139 120.56 164.675 120.944C166.211 121.304 167.567 121.856 168.743 122.6L166.943 127.028C165.767 126.356 164.591 125.864 163.415 125.552C162.239 125.216 161.087 125.048 159.959 125.048C158.831 125.048 157.907 125.18 157.187 125.444C156.467 125.708 155.951 126.056 155.639 126.488C155.327 126.896 155.171 127.376 155.171 127.928C155.171 128.576 155.435 129.104 155.963 129.512C156.491 129.896 157.187 130.208 158.051 130.448C158.915 130.688 159.863 130.928 160.895 131.168C161.951 131.408 162.995 131.684 164.027 131.996C165.083 132.308 166.043 132.728 166.907 133.256C167.771 133.784 168.467 134.48 168.995 135.344C169.547 136.208 169.823 137.3 169.823 138.62C169.823 140.036 169.427 141.332 168.635 142.508C167.843 143.684 166.655 144.632 165.071 145.352C163.511 146.072 161.531 146.432 159.131 146.432ZM182.088 146.432C180.072 146.432 178.14 146.168 176.292 145.64C174.444 145.088 172.956 144.38 171.828 143.516L173.808 139.124C174.888 139.892 176.16 140.528 177.624 141.032C179.112 141.512 180.612 141.752 182.124 141.752C183.276 141.752 184.2 141.644 184.896 141.428C185.616 141.188 186.144 140.864 186.48 140.456C186.816 140.048 186.984 139.58 186.984 139.052C186.984 138.38 186.72 137.852 186.192 137.468C185.664 137.06 184.968 136.736 184.104 136.496C183.24 136.232 182.28 135.992 181.224 135.776C180.192 135.536 179.148 135.248 178.092 134.912C177.06 134.576 176.112 134.144 175.248 133.616C174.384 133.088 173.676 132.392 173.124 131.528C172.596 130.664 172.332 129.56 172.332 128.216C172.332 126.776 172.716 125.468 173.484 124.292C174.276 123.092 175.452 122.144 177.012 121.448C178.596 120.728 180.576 120.368 182.952 120.368C184.536 120.368 186.096 120.56 187.632 120.944C189.168 121.304 190.524 121.856 191.7 122.6L189.9 127.028C188.724 126.356 187.548 125.864 186.372 125.552C185.196 125.216 184.044 125.048 182.916 125.048C181.788 125.048 180.864 125.18 180.144 125.444C179.424 125.708 178.908 126.056 178.596 126.488C178.284 126.896 178.128 127.376 178.128 127.928C178.128 128.576 178.392 129.104 178.92 129.512C179.448 129.896 180.144 130.208 181.008 130.448C181.872 130.688 182.82 130.928 183.852 131.168C184.908 131.408 185.952 131.684 186.984 131.996C188.04 132.308 189 132.728 189.864 133.256C190.728 133.784 191.424 134.48 191.952 135.344C192.504 136.208 192.78 137.3 192.78 138.62C192.78 140.036 192.384 141.332 191.592 142.508C190.8 143.684 189.612 144.632 188.028 145.352C186.468 146.072 184.488 146.432 182.088 146.432Z" fill="white"/>
</svg>
