<svg width="16" height="30" viewBox="0 0 16 30" fill="none" xmlns="http://www.w3.org/2000/svg">
<path d="M10.6667 15.8864C13.7733 14.7682 16 11.7409 16 8.18182C16 3.66818 12.4133 -1.56778e-07 8 -3.49691e-07C3.58667 -5.42604e-07 -1.60341e-07 3.66818 -3.57639e-07 8.18182C-5.13211e-07 11.7409 2.22667 14.7682 5.33333 15.8864L5.33333 21.8182L-9.53703e-07 21.8182L-1.19213e-06 27.2727L5.33333 27.2727L5.33333 30L10.6667 30L10.6667 15.8864ZM5.33333 8.18182C5.33333 6.68182 6.53333 5.45455 8 5.45455C9.46667 5.45455 10.6667 6.68182 10.6667 8.18182C10.6667 9.68182 9.46667 10.9091 8 10.9091C6.53333 10.9091 5.33333 9.68182 5.33333 8.18182Z" fill="black"/>
</svg>
