<svg width="19" height="20" viewBox="0 0 19 20" fill="none" xmlns="http://www.w3.org/2000/svg">
<g clip-path="url(#clip0_193_47)">
<path d="M13.6562 11.25H14.8438V14.375H13.6562V11.25Z" fill="white"/>
<path d="M3.5625 14.6875C3.5625 14.8603 3.6952 15 3.85938 15H5.64062C5.8048 15 5.9375 14.8603 5.9375 14.6875V13.125H13.0625V14.6875C13.0625 14.8603 13.1952 15 13.3594 15H15.1406C15.3048 15 15.4375 14.8603 15.4375 14.6875V13.125H19V18.75C19 19.4409 18.4689 20 17.8125 20H1.1875C0.531109 20 0 19.4409 0 18.75V13.125H3.5625V14.6875Z" fill="white"/>
<path d="M4.15625 11.25H5.34375V14.375H4.15625V11.25Z" fill="white"/>
<path d="M1.1875 4.0625H4.75V1.25C4.75 0.559063 5.28111 0 5.9375 0H13.0625C13.7189 0 14.25 0.559063 14.25 1.25V4.0625H17.8125C18.4689 4.0625 19 4.62156 19 5.3125V12.5H15.4375V10.9375C15.4375 10.7647 15.3048 10.625 15.1406 10.625H13.3594C13.1952 10.625 13.0625 10.7647 13.0625 10.9375V12.5H5.9375V10.9375C5.9375 10.7647 5.8048 10.625 5.64062 10.625H3.85938C3.6952 10.625 3.5625 10.7647 3.5625 10.9375V12.5H0V5.3125C0 4.62156 0.531109 4.0625 1.1875 4.0625ZM6.53125 4.0625H12.4688V1.875H6.53125V4.0625Z" fill="white"/>
</g>
<defs>
<clipPath id="clip0_193_47">
<rect width="19" height="20" fill="white" transform="matrix(-1 0 0 1 19 0)"/>
</clipPath>
</defs>
</svg>
