<svg width="246" height="246" viewBox="0 0 246 246" fill="none" xmlns="http://www.w3.org/2000/svg">
<path d="M123.5 20.5C66.92 20.5 21 66.42 21 123C21 179.58 66.92 225.5 123.5 225.5C180.08 225.5 226 179.58 226 123C226 66.42 180.08 20.5 123.5 20.5ZM123.5 205C78.2975 205 41.5 168.202 41.5 123C41.5 77.7975 78.2975 41 123.5 41C168.702 41 205.5 77.7975 205.5 123C205.5 168.202 168.702 205 123.5 205ZM163.27 84.9725L103 145.243L83.73 125.972C79.7325 121.975 73.275 121.975 69.2775 125.972C65.28 129.97 65.28 136.427 69.2775 140.425L95.825 166.973C99.8225 170.97 106.28 170.97 110.278 166.973L177.825 99.425C181.822 95.4275 181.822 88.97 177.825 84.9725C173.827 80.975 167.268 80.975 163.27 84.9725Z" fill="#FF9912"/>
</svg>
